<mxfile host="app.diagrams.net" modified="2023-08-29T07:51:53.626Z" agent="Mozilla/5.0 (X11; Ubuntu; Linux x86_64; rv:109.0) Gecko/20100101 Firefox/116.0" version="21.6.5" etag="gpGE90hQjE2DPNpkgAde" type="github">
  <diagram name="Page-1" id="ts0vT40CRou_QpuhovUj">
    <mxGraphModel>
      <root>
        <mxCell id="0" />
        <mxCell id="1" parent="0" />
      </root>
    </mxGraphModel>
  </diagram>
</mxfile>
